<?xml version="1.0" encoding="UTF-8"?>
<svg version="1.1" xmlns="http://www.w3.org/2000/svg" width="225" height="225">
<path d="M0 0 C74.25 0 148.5 0 225 0 C225 74.25 225 148.5 225 225 C150.75 225 76.5 225 0 225 C0 150.75 0 76.5 0 0 Z " fill="#1C8504" transform="translate(0,0)"/>
<path d="M0 0 C1.32 0 2.64 0 4 0 C4 5.28 4 10.56 4 16 C10.58432242 17.70448855 10.58432242 17.70448855 14.01953125 15.12890625 C14.94121094 14.28199219 15.86289063 13.43507813 16.8125 12.5625 C21.86259542 8 21.86259542 8 24 8 C24.495 9.485 24.495 9.485 25 11 C23.71802734 11.90492187 23.71802734 11.90492187 22.41015625 12.828125 C21.29386552 13.63485612 20.1780022 14.44217889 19.0625 15.25 C18.49853516 15.64574219 17.93457031 16.04148437 17.35351562 16.44921875 C13.93181879 18.94890147 13.06894138 19.72423446 12 24 C19.26 24 26.52 24 34 24 C34 24.99 34 25.98 34 27 C26.74 27.33 19.48 27.66 12 28 C12 28.66 12 29.32 12 30 C14.73456057 32.18990221 17.5291081 34.24414997 20.37890625 36.27929688 C21.97058944 37.45294459 23.49134913 38.72137694 25 40 C25 40.99 25 41.98 25 43 C19.59510481 41.47987323 16.01507372 37.72614782 12 34 C12.45683337 36.62526911 12.9151959 39.25025065 13.375 41.875 C13.51075439 42.65206299 13.64650879 43.42912598 13.78637695 44.22973633 C14.64720799 49.11829957 15.57879811 53.98050866 16.66796875 58.82421875 C17.08602193 61.56369662 17.02005327 64.23241332 17 67 C17.72364746 66.94239502 18.44729492 66.88479004 19.19287109 66.82543945 C36.67044664 65.62176112 48.21063263 66.81141205 62 78 C62.33 78.33 62.66 78.66 63 79 C64.38050858 79.12197808 65.76697647 79.17768899 67.15258789 79.20532227 C68.03342545 79.22526749 68.914263 79.24521271 69.8217926 79.26576233 C70.77907761 79.28247482 71.73636261 79.29918732 72.72265625 79.31640625 C73.69786728 79.33718735 74.67307831 79.35796844 75.67784119 79.37937927 C78.8059863 79.44498412 81.93421822 79.50381028 85.0625 79.5625 C87.1777435 79.60567483 89.29297809 79.64928877 91.40820312 79.69335938 C96.60537587 79.80067655 101.80263577 79.9024222 107 80 C107 81.32 107 82.64 107 84 C61.98199725 86.29368621 61.98199725 86.29368621 50.39404297 76.36523438 C41.32079503 68.92441179 29.16741168 70.47176744 18 71 C18.495 72.36125 18.495 72.36125 19 73.75 C20 77 20 77 20 81 C20.68288086 80.9371582 21.36576172 80.87431641 22.06933594 80.80957031 C44.91084357 78.99602348 44.91084357 78.99602348 54.8125 86.9375 C69.54378959 98.37761676 93.3454262 94.45662278 111 94 C111 94.99 111 95.98 111 97 C104.63715585 97.28318095 98.27597823 97.47325327 91.90820312 97.60424805 C89.75101045 97.65894783 87.59421316 97.73354265 85.43847656 97.82983398 C72.18786839 98.40608136 63.12006017 97.73644835 52.1194458 89.98617554 C45.63464806 85.4479389 40.31151725 84.47362643 32.375 84.8125 C31.26382813 84.81443359 30.15265625 84.81636719 29.0078125 84.81835938 C26.33373547 84.82988557 23.6715049 84.88995867 21 85 C21.495 88.96 21.495 88.96 22 93 C22.68288086 92.93192139 23.36576172 92.86384277 24.06933594 92.79370117 C46.56194256 90.85903559 46.56194256 90.85903559 54.70117188 97.60205078 C55.39791016 98.20774902 56.09464844 98.81344727 56.8125 99.4375 C71.25070424 111.58868752 95.26706623 107.53244212 113 107 C113 107.99 113 108.98 113 110 C106.60033539 110.25684857 100.20202988 110.43000485 93.79833984 110.54931641 C91.6275875 110.59912642 89.4571621 110.66700517 87.28759766 110.75439453 C71.87227764 111.35905637 62.13248731 109.77024919 50 100 C46.64880481 97.76586987 45.5822245 97.76152238 41.67578125 97.8046875 C40.64775391 97.81113281 39.61972656 97.81757812 38.56054688 97.82421875 C37.48869141 97.84097656 36.41683594 97.85773438 35.3125 97.875 C34.22904297 97.88402344 33.14558594 97.89304687 32.02929688 97.90234375 C29.3526429 97.9259266 26.67643203 97.95883874 24 98 C24.495 102.455 24.495 102.455 25 107 C25.73412109 106.9371582 26.46824219 106.87431641 27.22460938 106.80957031 C51.97707097 104.97289736 51.97707097 104.97289736 61.5 112.875 C63.26755189 114.4254367 64.97302441 115.99285366 66.61914062 117.67138672 C69.53852326 120.48031181 71.54898865 121.25292418 75.47143555 121.31884766 C76.37214279 121.33871735 77.27285004 121.35858704 78.20085144 121.37905884 C79.16968765 121.39061005 80.13852386 121.40216125 81.13671875 121.4140625 C82.13129593 121.43342865 83.12587311 121.4527948 84.15058899 121.4727478 C87.3294719 121.53256159 90.50839098 121.57893639 93.6875 121.625 C95.84181273 121.6631781 97.99611017 121.70222973 100.15039062 121.7421875 C105.43345809 121.83826451 110.71661753 121.92330674 116 122 C116 123.32 116 124.64 116 126 C109.77897046 126.32598102 103.56309413 126.55930143 97.33544922 126.71411133 C95.22649414 126.77874318 93.11810357 126.86689483 91.01123047 126.98071289 C75.96361141 127.77212741 66.89807555 125.80829222 55.28466797 115.9128418 C54.69458954 115.37862106 54.10451111 114.84440033 53.49655151 114.29399109 C50.59559171 111.78568042 48.30106718 111.82161826 44.5546875 111.68359375 C43.47832031 111.64169922 42.40195313 111.59980469 41.29296875 111.55664062 C40.16503906 111.51732422 39.03710938 111.47800781 37.875 111.4375 C36.73933594 111.39431641 35.60367188 111.35113281 34.43359375 111.30664062 C31.62252232 111.2003396 28.81136055 111.09830595 26 111 C26.495 112.85625 26.495 112.85625 27 114.75 C27.79891159 117.74591845 28 119.80107719 28 123 C28.76441406 122.9371582 29.52882813 122.87431641 30.31640625 122.80957031 C56.07663176 120.97287553 56.07663176 120.97287553 65.625 128.9375 C67.83678409 130.89295891 69.91468632 132.905672 72 135 C74.32851952 136.16425976 75.76280184 136.15457992 78.35791016 136.20532227 C79.25869293 136.22526749 80.15947571 136.24521271 81.08755493 136.26576233 C82.06155243 136.28247482 83.03554993 136.29918732 84.0390625 136.31640625 C85.03505463 136.33718735 86.03104675 136.35796844 87.05722046 136.37937927 C90.24640854 136.44489042 93.43568058 136.50376704 96.625 136.5625 C98.78386293 136.60568373 100.9427173 136.64929797 103.1015625 136.69335938 C108.4009523 136.80057336 113.70042606 136.90233685 119 137 C119 138.32 119 139.64 119 141 C112.60072686 141.30819943 106.20340764 141.51597501 99.79833984 141.65917969 C97.62736553 141.71895781 95.45686223 141.8004207 93.28759766 141.90527344 C78.92272474 142.58142343 69.71355246 141.59184858 58.83398438 131.69628906 C57.43116211 130.36162598 57.43116211 130.36162598 56 129 C53.37276604 127.68638302 51.27389439 127.78746091 48.3359375 127.68359375 C47.21445313 127.64169922 46.09296875 127.59980469 44.9375 127.55664062 C43.761875 127.51732422 42.58625 127.47800781 41.375 127.4375 C40.19164062 127.39431641 39.00828125 127.35113281 37.7890625 127.30664062 C34.85949672 127.20032574 31.92984412 127.09829358 29 127 C29.2165625 127.88751953 29.2165625 127.88751953 29.4375 128.79296875 C29.623125 129.58316406 29.80875 130.37335938 30 131.1875 C30.185625 131.96480469 30.37125 132.74210938 30.5625 133.54296875 C31.01422743 136.07990225 31.07307143 138.42879903 31 141 C31.78012451 140.94763184 32.56024902 140.89526367 33.36401367 140.84130859 C59.58451523 139.31066526 59.58451523 139.31066526 66.875 145.75 C68.60681483 147.47676581 70.31701594 149.22560787 72 151 C77.3352589 155.52903274 81.74220649 155.60075647 88.4296875 155.609375 C89.42001984 155.62591125 90.41035217 155.64244751 91.43069458 155.65948486 C94.57886 155.70788329 97.72654261 155.72931811 100.875 155.75 C103.01564918 155.77816644 105.15627595 155.8080948 107.296875 155.83984375 C112.53116259 155.91363973 117.76531486 155.96533004 123 156 C123 157.32 123 158.64 123 160 C116.76058673 160.30058319 110.52553309 160.51615315 104.28051758 160.65917969 C102.16486084 160.71888869 100.04968517 160.80029673 97.93579102 160.90527344 C82.62187728 161.64574236 73.10484759 159.71125068 61.51927185 149.31671143 C58.06500433 146.32299209 55.92119576 145.72765701 51.45703125 145.5859375 C49.84731445 145.52792969 49.84731445 145.52792969 48.20507812 145.46875 C47.08552734 145.4378125 45.96597656 145.406875 44.8125 145.375 C43.68134766 145.33632812 42.55019531 145.29765625 41.38476562 145.2578125 C38.59011456 145.16347829 35.79507951 145.0806477 33 145 C33.99 152.425 33.99 152.425 35 160 C36.72863281 159.83757812 38.45726562 159.67515625 40.23828125 159.5078125 C60.73206567 158.18377587 60.73206567 158.18377587 66.37109375 163.08203125 C67.68124593 164.34966528 68.97401757 165.63547711 70.25 166.9375 C81.31883224 177.81599872 97.82795797 175.43085924 112.25292969 175.35522461 C117.50415328 175.29949546 122.75155581 175.17820836 128 175 C128 176.65 128 178.3 128 180 C121.56370419 180.25626175 115.12874837 180.42976874 108.68847656 180.54931641 C106.50405744 180.59921104 104.31996541 180.66715684 102.13671875 180.75439453 C87.06628534 181.34092697 78.19857298 180.28633499 67 170 C62.77592265 166.49424294 59.73677688 164.38492071 54.06640625 164.29296875 C53.00615234 164.26396484 51.94589844 164.23496094 50.85351562 164.20507812 C49.76748047 164.19927734 48.68144531 164.19347656 47.5625 164.1875 C46.44939453 164.16236328 45.33628906 164.13722656 44.18945312 164.11132812 C41.45927955 164.05274071 38.7306989 164.01625226 36 164 C36.17958252 164.67482422 36.35916504 165.34964844 36.54418945 166.04492188 C38.62753385 174.09594882 40.27580314 182.18506151 41.78979492 190.35742188 C42.19228928 192.52580156 42.60265555 194.69259624 43.01367188 196.859375 C43.27390301 198.24991296 43.53368553 199.64053497 43.79296875 201.03125 C44.14137817 202.89620117 44.14137817 202.89620117 44.49682617 204.79882812 C45 208 45 208 45 212 C43.68 212 42.36 212 41 212 C37.69304077 196.38139684 34.40936102 180.78765513 32 165 C28.0886501 164.55579065 26.45169169 164.67293473 23.2109375 167.01953125 C22.27507812 167.94121094 21.33921875 168.86289063 20.375 169.8125 C19.33636847 170.81555062 18.29729179 171.81814046 17.2578125 172.8203125 C16.72704102 173.34141602 16.19626953 173.86251953 15.64941406 174.39941406 C12.90828969 177.05939207 10.07578778 179.61817811 7.25 182.1875 C6.23394831 183.11802388 5.21828308 184.04897006 4.203125 184.98046875 C3.47609375 185.64691406 2.7490625 186.31335938 2 187 C-1.67956291 185.43767979 -4.16515793 183.16415918 -7.0625 180.4375 C-10.92109606 176.88325844 -14.80011496 173.382024 -18.8125 170 C-19.66457031 169.278125 -20.51664063 168.55625 -21.39453125 167.8125 C-24.19034863 165.86758356 -26.73456772 164.91527445 -30 164 C-30.19033813 165.69866211 -30.19033813 165.69866211 -30.38452148 167.43164062 C-30.96267109 172.04367326 -31.87114598 176.55177712 -32.84765625 181.09375 C-33.02380966 181.92588013 -33.19996307 182.75801025 -33.38145447 183.61535645 C-33.93870006 186.24424137 -34.50052017 188.87212351 -35.0625 191.5 C-35.44366353 193.29420624 -35.82452582 195.08847651 -36.20507812 196.8828125 C-37.13323899 201.25595597 -38.06550063 205.62820682 -39 210 C-40.32 209.67 -41.64 209.34 -43 209 C-38.33716378 183.1413057 -33.04441661 157.41688242 -27.6875 131.6953125 C-27.48890381 130.74108398 -27.29030762 129.78685547 -27.08569336 128.80371094 C-26.69838556 126.94967059 -26.30861474 125.09614289 -25.91625977 123.24316406 C-24.8045377 117.97096809 -23.74181871 112.69215194 -22.73019409 107.39996338 C-22.12668183 104.25359802 -21.5098715 101.10989935 -20.89208984 97.96630859 C-20.59071808 96.41413069 -20.29555779 94.86073296 -20.00683594 93.30615234 C-19.60220363 91.13043221 -19.17644455 88.95981968 -18.74609375 86.7890625 C-18.50560303 85.52787598 -18.2651123 84.26668945 -18.01733398 82.96728516 C-17 80 -17 80 -14.89086914 78.57568359 C-13.95488892 78.29072021 -13.95488892 78.29072021 -13 78 C-13 79.32 -13 80.64 -13 82 C-11.68 82.33 -10.36 82.66 -9 83 C-9.61875 83.165 -10.2375 83.33 -10.875 83.5 C-14.27756949 85.90181375 -14.22612026 89.00162134 -15 93 C-9.555 92.505 -9.555 92.505 -4 92 C-5.32 90.35 -6.64 88.7 -8 87 C-7.01 86.67 -6.02 86.34 -5 86 C-3.35 87.98 -1.7 89.96 0 92 C1.14926266 91.04578192 2.29430541 90.08647955 3.4375 89.125 C4.07558594 88.59132813 4.71367188 88.05765625 5.37109375 87.5078125 C7.10805004 86.0777243 7.10805004 86.0777243 8 84 C3.05 84 -1.9 84 -7 84 C-7.33 83.34 -7.66 82.68 -8 82 C-6.329375 81.7834375 -6.329375 81.7834375 -4.625 81.5625 C-1.17857953 81.21627965 -1.17857953 81.21627965 1 80 C1 80.66 1 81.32 1 82 C5.95 82 10.9 82 16 82 C15.34 78.37 14.68 74.74 14 71 C13.071875 71.309375 12.14375 71.61875 11.1875 71.9375 C9.125 72.625 7.0625 73.3125 5 74 C5.495 72.02 5.495 72.02 6 70 C5.01257813 70.09539062 4.02515625 70.19078125 3.0078125 70.2890625 C1.72648437 70.39992188 0.44515625 70.51078125 -0.875 70.625 C-2.15117188 70.74101563 -3.42734375 70.85703125 -4.7421875 70.9765625 C-5.81726563 70.98429687 -6.89234375 70.99203125 -8 71 C-8.99 70.01 -8.99 70.01 -10 69 C-9 68 -9 68 -6.77514648 67.88647461 C-5.33764038 67.89432983 -5.33764038 67.89432983 -3.87109375 67.90234375 C-2.83662109 67.90556641 -1.80214844 67.90878906 -0.73632812 67.91210938 C0.35228516 67.92048828 1.44089844 67.92886719 2.5625 67.9375 C4.2012207 67.94426758 4.2012207 67.94426758 5.87304688 67.95117188 C8.58208495 67.96300174 11.29101599 67.97948457 14 68 C13.69658691 67.14841309 13.39317383 66.29682617 13.08056641 65.41943359 C12.01271962 62.04025102 11.31913483 58.77819453 10.7109375 55.2890625 C10.38222656 53.42314453 10.38222656 53.42314453 10.046875 51.51953125 C9.82515625 50.23433594 9.6034375 48.94914062 9.375 47.625 C9.14364791 46.30331205 8.91188094 44.98169665 8.6796875 43.66015625 C8.11571153 40.44079343 7.5559599 37.22075512 7 34 C3.7 34 0.4 34 -3 34 C-3.12503906 34.94875 -3.25007813 35.8975 -3.37890625 36.875 C-4.05764382 41.61781294 -4.99474267 46.3037367 -5.9375 51 C-6.19176758 52.29550781 -6.19176758 52.29550781 -6.45117188 53.6171875 C-9.22011484 67.47243063 -9.22011484 67.47243063 -12.125 69.4375 C-12.74375 69.623125 -13.3625 69.80875 -14 70 C-13.21951082 62.75131884 -11.84022196 55.65113158 -10.4375 48.5 C-10.20353516 47.29601563 -9.96957031 46.09203125 -9.72851562 44.8515625 C-9.15471185 41.90057163 -8.57847782 38.95007754 -8 36 C-8.62648437 36.5053125 -9.25296875 37.010625 -9.8984375 37.53125 C-10.71570313 38.1809375 -11.53296875 38.830625 -12.375 39.5 C-13.18710938 40.1496875 -13.99921875 40.799375 -14.8359375 41.46875 C-17 43 -17 43 -19 43 C-18.67954979 39.94549591 -18.07395774 39.06472883 -15.71484375 37 C-13.86156595 35.66543146 -12.00739682 34.33209982 -10.15234375 33 C-9.44207031 32.34 -8.73179688 31.68 -8 31 C-8 29.68 -8 28.36 -8 27 C-14.93 27 -21.86 27 -29 27 C-29 26.01 -29 25.02 -29 24 C-22.4 24 -15.8 24 -9 24 C-8.41754379 19.07435986 -8.41754379 19.07435986 -11.1875 16.76171875 C-12.115625 16.07722656 -13.04375 15.39273437 -14 14.6875 C-14.928125 13.99011719 -15.85625 13.29273438 -16.8125 12.57421875 C-17.534375 12.05472656 -18.25625 11.53523438 -19 11 C-18.67 10.01 -18.34 9.02 -18 8 C-14.18984902 9.73573545 -11.34417257 12.13368079 -8.1953125 14.85546875 C-5.5080544 16.53650837 -5.5080544 16.53650837 0 15 C0 10.05 0 5.1 0 0 Z " fill="#F1DF53" transform="translate(90,8)"/>
<path d="M0 0 C1.32 0 2.64 0 4 0 C4 5.28 4 10.56 4 16 C10.58432242 17.70448855 10.58432242 17.70448855 14.01953125 15.12890625 C14.94121094 14.28199219 15.86289063 13.43507813 16.8125 12.5625 C21.86259542 8 21.86259542 8 24 8 C24.495 9.485 24.495 9.485 25 11 C24.14535156 11.60328125 23.29070312 12.2065625 22.41015625 12.828125 C21.29386552 13.63485612 20.1780022 14.44217889 19.0625 15.25 C18.49853516 15.64574219 17.93457031 16.04148437 17.35351562 16.44921875 C13.93181879 18.94890147 13.06894138 19.72423446 12 24 C19.26 24 26.52 24 34 24 C34 24.99 34 25.98 34 27 C26.74 27.33 19.48 27.66 12 28 C12 28.66 12 29.32 12 30 C14.73456057 32.18990221 17.5291081 34.24414997 20.37890625 36.27929688 C21.97058944 37.45294459 23.49134913 38.72137694 25 40 C25 40.99 25 41.98 25 43 C19.59510481 41.47987323 16.01507372 37.72614782 12 34 C12.45683337 36.62526911 12.9151959 39.25025065 13.375 41.875 C13.51075439 42.65206299 13.64650879 43.42912598 13.78637695 44.22973633 C14.64720799 49.11829957 15.57879811 53.98050866 16.66796875 58.82421875 C17.08602193 61.56369662 17.02005327 64.23241332 17 67 C17.72364746 66.94239502 18.44729492 66.88479004 19.19287109 66.82543945 C36.67044664 65.62176112 48.21063263 66.81141205 62 78 C62.33 78.33 62.66 78.66 63 79 C64.38050858 79.12197808 65.76697647 79.17768899 67.15258789 79.20532227 C68.03342545 79.22526749 68.914263 79.24521271 69.8217926 79.26576233 C70.77907761 79.28247482 71.73636261 79.29918732 72.72265625 79.31640625 C73.69786728 79.33718735 74.67307831 79.35796844 75.67784119 79.37937927 C78.8059863 79.44498412 81.93421822 79.50381028 85.0625 79.5625 C87.1777435 79.60567483 89.29297809 79.64928877 91.40820312 79.69335938 C96.60537587 79.80067655 101.80263577 79.9024222 107 80 C107 81.32 107 82.64 107 84 C61.98199725 86.29368621 61.98199725 86.29368621 50.39404297 76.36523438 C41.32079503 68.92441179 29.16741168 70.47176744 18 71 C18.495 72.36125 18.495 72.36125 19 73.75 C20 77 20 77 20 81 C20.68288086 80.9371582 21.36576172 80.87431641 22.06933594 80.80957031 C44.91084357 78.99602348 44.91084357 78.99602348 54.8125 86.9375 C69.54378959 98.37761676 93.3454262 94.45662278 111 94 C111 94.99 111 95.98 111 97 C104.63715585 97.28318095 98.27597823 97.47325327 91.90820312 97.60424805 C89.75101045 97.65894783 87.59421316 97.73354265 85.43847656 97.82983398 C72.18786839 98.40608136 63.12006017 97.73644835 52.1194458 89.98617554 C45.63464806 85.4479389 40.31151725 84.47362643 32.375 84.8125 C31.26382813 84.81443359 30.15265625 84.81636719 29.0078125 84.81835938 C26.33373547 84.82988557 23.6715049 84.88995867 21 85 C21.495 88.96 21.495 88.96 22 93 C22.68288086 92.93192139 23.36576172 92.86384277 24.06933594 92.79370117 C46.56194256 90.85903559 46.56194256 90.85903559 54.70117188 97.60205078 C55.39791016 98.20774902 56.09464844 98.81344727 56.8125 99.4375 C71.25070424 111.58868752 95.26706623 107.53244212 113 107 C113 107.99 113 108.98 113 110 C106.60033539 110.25684857 100.20202988 110.43000485 93.79833984 110.54931641 C91.6275875 110.59912642 89.4571621 110.66700517 87.28759766 110.75439453 C71.87227764 111.35905637 62.13248731 109.77024919 50 100 C46.64880481 97.76586987 45.5822245 97.76152238 41.67578125 97.8046875 C40.64775391 97.81113281 39.61972656 97.81757812 38.56054688 97.82421875 C37.48869141 97.84097656 36.41683594 97.85773438 35.3125 97.875 C33.68731445 97.88853516 33.68731445 97.88853516 32.02929688 97.90234375 C29.3526429 97.9259266 26.67643203 97.95883874 24 98 C24.495 102.455 24.495 102.455 25 107 C25.73412109 106.9371582 26.46824219 106.87431641 27.22460938 106.80957031 C51.97707097 104.97289736 51.97707097 104.97289736 61.5 112.875 C63.26755189 114.4254367 64.97302441 115.99285366 66.61914062 117.67138672 C69.53852326 120.48031181 71.54898865 121.25292418 75.47143555 121.31884766 C76.37214279 121.33871735 77.27285004 121.35858704 78.20085144 121.37905884 C79.16968765 121.39061005 80.13852386 121.40216125 81.13671875 121.4140625 C82.13129593 121.43342865 83.12587311 121.4527948 84.15058899 121.4727478 C87.3294719 121.53256159 90.50839098 121.57893639 93.6875 121.625 C95.84181273 121.6631781 97.99611017 121.70222973 100.15039062 121.7421875 C105.43345809 121.83826451 110.71661753 121.92330674 116 122 C116 123.32 116 124.64 116 126 C109.77897046 126.32598102 103.56309413 126.55930143 97.33544922 126.71411133 C95.22649414 126.77874318 93.11810357 126.86689483 91.01123047 126.98071289 C75.96361141 127.77212741 66.89807555 125.80829222 55.28466797 115.9128418 C54.69458954 115.37862106 54.10451111 114.84440033 53.49655151 114.29399109 C50.59559171 111.78568042 48.30106718 111.82161826 44.5546875 111.68359375 C43.47832031 111.64169922 42.40195313 111.59980469 41.29296875 111.55664062 C40.16503906 111.51732422 39.03710938 111.47800781 37.875 111.4375 C36.73933594 111.39431641 35.60367188 111.35113281 34.43359375 111.30664062 C31.62252232 111.2003396 28.81136055 111.09830595 26 111 C26.495 114.465 26.495 114.465 27 118 C26.01 117.505 26.01 117.505 25 117 C24.67 118.98 24.34 120.96 24 123 C17.73 123 11.46 123 5 123 C11 116 11 116 14 113 C11.87675742 113.9517984 10.21728242 114.78271758 8.5625 116.4375 C6.52315957 118.47684043 4.61972433 119.78598141 2 121 C0.0625 120.4375 0.0625 120.4375 -2 119 C-3.60875 117.948125 -3.60875 117.948125 -5.25 116.875 C-6.1575 116.25625 -7.065 115.6375 -8 115 C-8.2133948 118.04563452 -8.2133948 118.04563452 -3 123 C-8.94 123 -14.88 123 -21 123 C-21.495 120.525 -21.495 120.525 -22 118 C-22.66 118 -23.32 118 -24 118 C-23.32572324 110.58295569 -22.0495047 103.34053655 -20.58081055 96.04077148 C-20.31640655 94.71087356 -20.05968748 93.37942687 -19.81030273 92.04663086 C-19.44625162 90.10209983 -19.05747309 88.16224912 -18.66796875 86.22265625 C-18.44391357 85.07547119 -18.2198584 83.92828613 -17.98901367 82.74633789 C-17 80 -17 80 -14.89575195 78.61108398 C-13.95735474 78.30859741 -13.95735474 78.30859741 -13 78 C-13 79.32 -13 80.64 -13 82 C-11.68 82.33 -10.36 82.66 -9 83 C-9.61875 83.165 -10.2375 83.33 -10.875 83.5 C-14.27756949 85.90181375 -14.22612026 89.00162134 -15 93 C-9.555 92.505 -9.555 92.505 -4 92 C-5.32 90.35 -6.64 88.7 -8 87 C-6.515 86.505 -6.515 86.505 -5 86 C-3.35 87.98 -1.7 89.96 0 92 C1.14926266 91.04578192 2.29430541 90.08647955 3.4375 89.125 C4.07558594 88.59132813 4.71367188 88.05765625 5.37109375 87.5078125 C7.10805004 86.0777243 7.10805004 86.0777243 8 84 C3.05 84 -1.9 84 -7 84 C-7.495 83.01 -7.495 83.01 -8 82 C-6.329375 81.7834375 -6.329375 81.7834375 -4.625 81.5625 C-1.17857953 81.21627965 -1.17857953 81.21627965 1 80 C1 80.66 1 81.32 1 82 C5.95 82 10.9 82 16 82 C15.34 78.37 14.68 74.74 14 71 C13.071875 71.309375 12.14375 71.61875 11.1875 71.9375 C9.125 72.625 7.0625 73.3125 5 74 C5.495 72.02 5.495 72.02 6 70 C5.01257813 70.09539062 4.02515625 70.19078125 3.0078125 70.2890625 C1.72648437 70.39992188 0.44515625 70.51078125 -0.875 70.625 C-2.15117188 70.74101563 -3.42734375 70.85703125 -4.7421875 70.9765625 C-5.81726563 70.98429687 -6.89234375 70.99203125 -8 71 C-8.66 70.34 -9.32 69.68 -10 69 C-9 68 -9 68 -6.77514648 67.88647461 C-5.33764038 67.89432983 -5.33764038 67.89432983 -3.87109375 67.90234375 C-2.31938477 67.90717773 -2.31938477 67.90717773 -0.73632812 67.91210938 C0.35228516 67.92048828 1.44089844 67.92886719 2.5625 67.9375 C4.2012207 67.94426758 4.2012207 67.94426758 5.87304688 67.95117188 C8.58208495 67.96300174 11.29101599 67.97948457 14 68 C13.69658691 67.14841309 13.39317383 66.29682617 13.08056641 65.41943359 C12.01271962 62.04025102 11.31913483 58.77819453 10.7109375 55.2890625 C10.38222656 53.42314453 10.38222656 53.42314453 10.046875 51.51953125 C9.82515625 50.23433594 9.6034375 48.94914062 9.375 47.625 C9.14364791 46.30331205 8.91188094 44.98169665 8.6796875 43.66015625 C8.11571153 40.44079343 7.5559599 37.22075512 7 34 C3.7 34 0.4 34 -3 34 C-3.12503906 34.94875 -3.25007813 35.8975 -3.37890625 36.875 C-4.05764382 41.61781294 -4.99474267 46.3037367 -5.9375 51 C-6.10701172 51.86367188 -6.27652344 52.72734375 -6.45117188 53.6171875 C-9.22011484 67.47243063 -9.22011484 67.47243063 -12.125 69.4375 C-12.74375 69.623125 -13.3625 69.80875 -14 70 C-13.21951082 62.75131884 -11.84022196 55.65113158 -10.4375 48.5 C-10.20353516 47.29601563 -9.96957031 46.09203125 -9.72851562 44.8515625 C-9.15471185 41.90057163 -8.57847782 38.95007754 -8 36 C-8.62648438 36.5053125 -9.25296875 37.010625 -9.8984375 37.53125 C-10.71570313 38.1809375 -11.53296875 38.830625 -12.375 39.5 C-13.59316406 40.47453125 -13.59316406 40.47453125 -14.8359375 41.46875 C-17 43 -17 43 -19 43 C-18.67954979 39.94549591 -18.07395774 39.06472883 -15.71484375 37 C-13.86156595 35.66543146 -12.00739682 34.33209982 -10.15234375 33 C-9.44207031 32.34 -8.73179688 31.68 -8 31 C-8 29.68 -8 28.36 -8 27 C-14.93 27 -21.86 27 -29 27 C-29 26.01 -29 25.02 -29 24 C-22.4 24 -15.8 24 -9 24 C-8.41754379 19.07435986 -8.41754379 19.07435986 -11.1875 16.76171875 C-12.115625 16.07722656 -13.04375 15.39273437 -14 14.6875 C-14.928125 13.99011719 -15.85625 13.29273438 -16.8125 12.57421875 C-17.534375 12.05472656 -18.25625 11.53523438 -19 11 C-18.67 10.01 -18.34 9.02 -18 8 C-14.18984902 9.73573545 -11.34417257 12.13368079 -8.1953125 14.85546875 C-5.5080544 16.53650837 -5.5080544 16.53650837 0 15 C0 10.05 0 5.1 0 0 Z " fill="#EFDD52" transform="translate(90,8)"/>
<path d="M0 0 C0.66 0.33 1.32 0.66 2 1 C1.34 5.62 0.68 10.24 0 15 C6.93 15 13.86 15 21 15 C21 15.66 21 16.32 21 17 C15.72 17 10.44 17 5 17 C4.67 18.65 4.34 20.3 4 22 C2.02 21.34 0.04 20.68 -2 20 C-2.13277344 20.91523438 -2.26554687 21.83046875 -2.40234375 22.7734375 C-2.57894531 23.96195313 -2.75554688 25.15046875 -2.9375 26.375 C-3.11152344 27.55835938 -3.28554688 28.74171875 -3.46484375 29.9609375 C-4 33 -4 33 -5 35 C0.61 35 6.22 35 12 35 C12 35.33 12 35.66 12 36 C9.525 36.495 9.525 36.495 7 37 C9.22981558 41.16780966 11.87909712 44.02203178 15.375 47.1875 C16.31085938 48.04730469 17.24671875 48.90710938 18.2109375 49.79296875 C21.15344269 52.33679448 21.15344269 52.33679448 26 54 C30.95 49.38 35.9 44.76 41 40 C38.03 39.505 38.03 39.505 35 39 C35 38.67 35 38.34 35 38 C38.07617188 37.70703125 38.07617188 37.70703125 41.15234375 37.4140625 C42.06693359 37.20910156 42.06693359 37.20910156 43 37 C43.495 36.01 43.495 36.01 44 35 C47.63 35 51.26 35 55 35 C54.505 32.958125 54.505 32.958125 54 30.875 C53.17007504 27.17540494 52.80474296 23.80751232 53 20 C48.6822542 20.50797009 44.96697886 21.19682779 41 23 C41 21.02 41 19.04 41 17 C44.63 17 48.26 17 52 17 C51.505 15.700625 51.505 15.700625 51 14.375 C50.01268659 11.04281725 49.83579026 8.44840462 50 5 C50.99 4.67 51.98 4.34 53 4 C54.30492469 8.15944744 55.12019705 11.65036909 55 16 C55.78012451 15.94763184 56.56024902 15.89526367 57.36401367 15.84130859 C83.58451523 14.31066526 83.58451523 14.31066526 90.875 20.75 C92.60681483 22.47676581 94.31701594 24.22560787 96 26 C101.3352589 30.52903274 105.74220649 30.60075647 112.4296875 30.609375 C113.42001984 30.62591125 114.41035217 30.64244751 115.43069458 30.65948486 C118.57886 30.70788329 121.72654261 30.72931811 124.875 30.75 C127.01564918 30.77816644 129.15627595 30.8080948 131.296875 30.83984375 C136.53116259 30.91363973 141.76531486 30.96533004 147 31 C147 32.32 147 33.64 147 35 C140.76058673 35.30058319 134.52553309 35.51615315 128.28051758 35.65917969 C126.16486084 35.71888869 124.04968517 35.80029673 121.93579102 35.90527344 C106.62187728 36.64574236 97.10484759 34.71125068 85.51927185 24.31671143 C82.06500433 21.32299209 79.92119576 20.72765701 75.45703125 20.5859375 C74.38388672 20.54726562 73.31074219 20.50859375 72.20507812 20.46875 C71.08552734 20.4378125 69.96597656 20.406875 68.8125 20.375 C67.68134766 20.33632812 66.55019531 20.29765625 65.38476562 20.2578125 C62.59011456 20.16347829 59.79507951 20.0806477 57 20 C57.99 27.425 57.99 27.425 59 35 C60.72863281 34.83757812 62.45726562 34.67515625 64.23828125 34.5078125 C84.73206567 33.18377587 84.73206567 33.18377587 90.37109375 38.08203125 C91.68124593 39.34966528 92.97401757 40.63547711 94.25 41.9375 C105.31883224 52.81599872 121.82795797 50.43085924 136.25292969 50.35522461 C141.50415328 50.29949546 146.75155581 50.17820836 152 50 C152 51.65 152 53.3 152 55 C145.56370419 55.25626175 139.12874837 55.42976874 132.68847656 55.54931641 C130.50405744 55.59921104 128.31996541 55.66715684 126.13671875 55.75439453 C111.06628534 56.34092697 102.19857298 55.28633499 91 45 C86.77592265 41.49424294 83.73677688 39.38492071 78.06640625 39.29296875 C77.00615234 39.26396484 75.94589844 39.23496094 74.85351562 39.20507812 C73.76748047 39.19927734 72.68144531 39.19347656 71.5625 39.1875 C70.44939453 39.16236328 69.33628906 39.13722656 68.18945312 39.11132812 C65.45927955 39.05274071 62.7306989 39.01625226 60 39 C60.17958252 39.67482422 60.35916504 40.34964844 60.54418945 41.04492188 C62.62753385 49.09594882 64.27580314 57.18506151 65.78979492 65.35742188 C66.19228928 67.52580156 66.60265555 69.69259624 67.01367188 71.859375 C67.27390301 73.24991296 67.53368553 74.64053497 67.79296875 76.03125 C68.0252417 77.27455078 68.25751465 78.51785156 68.49682617 79.79882812 C69 83 69 83 69 87 C67.68 87 66.36 87 65 87 C61.69304077 71.38139684 58.40936102 55.78765513 56 40 C52.0886501 39.55579065 50.45169169 39.67293473 47.2109375 42.01953125 C46.27507812 42.94121094 45.33921875 43.86289063 44.375 44.8125 C43.33636847 45.81555062 42.29729179 46.81814046 41.2578125 47.8203125 C40.72704102 48.34141602 40.19626953 48.86251953 39.64941406 49.39941406 C36.90828969 52.05939207 34.07578778 54.61817811 31.25 57.1875 C30.23394831 58.11802388 29.21828308 59.04897006 28.203125 59.98046875 C27.11257812 60.98013672 27.11257812 60.98013672 26 62 C22.32043709 60.43767979 19.83484207 58.16415918 16.9375 55.4375 C13.07890394 51.88325844 9.19988504 48.382024 5.1875 45 C4.33542969 44.278125 3.48335937 43.55625 2.60546875 42.8125 C-0.19034863 40.86758356 -2.73456772 39.91527445 -6 39 C-6.12689209 40.13244141 -6.25378418 41.26488281 -6.38452148 42.43164062 C-6.96267109 47.04367326 -7.87114598 51.55177712 -8.84765625 56.09375 C-9.11188637 57.34194519 -9.11188637 57.34194519 -9.38145447 58.61535645 C-9.93870006 61.24424137 -10.50052017 63.87212351 -11.0625 66.5 C-11.44366353 68.29420624 -11.82452582 70.08847651 -12.20507812 71.8828125 C-13.13323899 76.25595597 -14.06550063 80.62820682 -15 85 C-16.32 84.67 -17.64 84.34 -19 84 C-15.82503489 66.39259364 -12.41199564 48.83209814 -8.8321228 31.30276489 C-8.5311595 29.82780559 -8.23134492 28.35261134 -7.93276978 26.87716675 C-3.11786265 3.11786265 -3.11786265 3.11786265 0 0 Z " fill="#F0DE52" transform="translate(66,133)"/>
<path d="M0 0 C1.32 0 2.64 0 4 0 C4 5.28 4 10.56 4 16 C10.58432242 17.70448855 10.58432242 17.70448855 14.01953125 15.12890625 C14.94121094 14.28199219 15.86289063 13.43507813 16.8125 12.5625 C21.86259542 8 21.86259542 8 24 8 C24.495 9.485 24.495 9.485 25 11 C24.14535156 11.60328125 23.29070312 12.2065625 22.41015625 12.828125 C21.29386552 13.63485612 20.1780022 14.44217889 19.0625 15.25 C18.49853516 15.64574219 17.93457031 16.04148437 17.35351562 16.44921875 C13.93181879 18.94890147 13.06894138 19.72423446 12 24 C19.26 24 26.52 24 34 24 C34 24.99 34 25.98 34 27 C26.74 27.33 19.48 27.66 12 28 C12 28.66 12 29.32 12 30 C14.73456057 32.18990221 17.5291081 34.24414997 20.37890625 36.27929688 C21.97058944 37.45294459 23.49134913 38.72137694 25 40 C25 40.99 25 41.98 25 43 C19.59510481 41.47987323 16.01507372 37.72614782 12 34 C12.45683337 36.62526911 12.9151959 39.25025065 13.375 41.875 C13.51075439 42.65206299 13.64650879 43.42912598 13.78637695 44.22973633 C14.64720799 49.11829957 15.57879811 53.98050866 16.66796875 58.82421875 C17.08602193 61.56369662 17.02005327 64.23241332 17 67 C17.72364746 66.94239502 18.44729492 66.88479004 19.19287109 66.82543945 C36.67044664 65.62176112 48.21063263 66.81141205 62 78 C62.33 78.33 62.66 78.66 63 79 C64.38050858 79.12197808 65.76697647 79.17768899 67.15258789 79.20532227 C68.03342545 79.22526749 68.914263 79.24521271 69.8217926 79.26576233 C70.77907761 79.28247482 71.73636261 79.29918732 72.72265625 79.31640625 C73.69786728 79.33718735 74.67307831 79.35796844 75.67784119 79.37937927 C78.8059863 79.44498412 81.93421822 79.50381028 85.0625 79.5625 C87.1777435 79.60567483 89.29297809 79.64928877 91.40820312 79.69335938 C96.60537587 79.80067655 101.80263577 79.9024222 107 80 C107 81.32 107 82.64 107 84 C61.98199725 86.29368621 61.98199725 86.29368621 50.39404297 76.36523438 C41.32079503 68.92441179 29.16741168 70.47176744 18 71 C18.495 72.36125 18.495 72.36125 19 73.75 C20 77 20 77 20 81 C18.02 81.495 18.02 81.495 16 82 C15.34 78.37 14.68 74.74 14 71 C13.071875 71.309375 12.14375 71.61875 11.1875 71.9375 C9.125 72.625 7.0625 73.3125 5 74 C5.495 72.02 5.495 72.02 6 70 C5.01257813 70.09539062 4.02515625 70.19078125 3.0078125 70.2890625 C1.72648437 70.39992188 0.44515625 70.51078125 -0.875 70.625 C-2.15117188 70.74101563 -3.42734375 70.85703125 -4.7421875 70.9765625 C-5.81726563 70.98429687 -6.89234375 70.99203125 -8 71 C-8.66 70.34 -9.32 69.68 -10 69 C-9 68 -9 68 -6.77514648 67.88647461 C-5.33764038 67.89432983 -5.33764038 67.89432983 -3.87109375 67.90234375 C-2.31938477 67.90717773 -2.31938477 67.90717773 -0.73632812 67.91210938 C0.35228516 67.92048828 1.44089844 67.92886719 2.5625 67.9375 C4.2012207 67.94426758 4.2012207 67.94426758 5.87304688 67.95117188 C8.58208495 67.96300174 11.29101599 67.97948457 14 68 C13.69658691 67.14841309 13.39317383 66.29682617 13.08056641 65.41943359 C12.01271962 62.04025102 11.31913483 58.77819453 10.7109375 55.2890625 C10.38222656 53.42314453 10.38222656 53.42314453 10.046875 51.51953125 C9.82515625 50.23433594 9.6034375 48.94914062 9.375 47.625 C9.14364791 46.30331205 8.91188094 44.98169665 8.6796875 43.66015625 C8.11571153 40.44079343 7.5559599 37.22075512 7 34 C3.7 34 0.4 34 -3 34 C-3.12503906 34.94875 -3.25007813 35.8975 -3.37890625 36.875 C-4.05764382 41.61781294 -4.99474267 46.3037367 -5.9375 51 C-6.10701172 51.86367188 -6.27652344 52.72734375 -6.45117188 53.6171875 C-9.22011484 67.47243063 -9.22011484 67.47243063 -12.125 69.4375 C-12.74375 69.623125 -13.3625 69.80875 -14 70 C-13.21951082 62.75131884 -11.84022196 55.65113158 -10.4375 48.5 C-10.20353516 47.29601563 -9.96957031 46.09203125 -9.72851562 44.8515625 C-9.15471185 41.90057163 -8.57847782 38.95007754 -8 36 C-8.62648438 36.5053125 -9.25296875 37.010625 -9.8984375 37.53125 C-10.71570313 38.1809375 -11.53296875 38.830625 -12.375 39.5 C-13.59316406 40.47453125 -13.59316406 40.47453125 -14.8359375 41.46875 C-17 43 -17 43 -19 43 C-18.67954979 39.94549591 -18.07395774 39.06472883 -15.71484375 37 C-13.86156595 35.66543146 -12.00739682 34.33209982 -10.15234375 33 C-9.44207031 32.34 -8.73179688 31.68 -8 31 C-8 29.68 -8 28.36 -8 27 C-14.93 27 -21.86 27 -29 27 C-29 26.01 -29 25.02 -29 24 C-22.4 24 -15.8 24 -9 24 C-8.41754379 19.07435986 -8.41754379 19.07435986 -11.1875 16.76171875 C-12.115625 16.07722656 -13.04375 15.39273437 -14 14.6875 C-14.928125 13.99011719 -15.85625 13.29273438 -16.8125 12.57421875 C-17.534375 12.05472656 -18.25625 11.53523438 -19 11 C-18.67 10.01 -18.34 9.02 -18 8 C-14.18984902 9.73573545 -11.34417257 12.13368079 -8.1953125 14.85546875 C-5.5080544 16.53650837 -5.5080544 16.53650837 0 15 C0 10.05 0 5.1 0 0 Z " fill="#ECDC51" transform="translate(90,8)"/>
<path d="M0 0 C1.90722656 0.65917969 1.90722656 0.65917969 4 2 C4.91308594 4.42675781 4.91308594 4.42675781 5.484375 7.453125 C5.80341797 9.09474609 5.80341797 9.09474609 6.12890625 10.76953125 C6.33386719 11.91808594 6.53882812 13.06664062 6.75 14.25 C6.97042969 15.38308594 7.19085938 16.51617187 7.41796875 17.68359375 C8.3982248 22.87712427 9.12022945 27.70004926 9 33 C9.72364746 32.94239502 10.44729492 32.88479004 11.19287109 32.82543945 C28.67044664 31.62176112 40.21063263 32.81141205 54 44 C54.33 44.33 54.66 44.66 55 45 C56.38050858 45.12197808 57.76697647 45.17768899 59.15258789 45.20532227 C60.03342545 45.22526749 60.914263 45.24521271 61.8217926 45.26576233 C62.77907761 45.28247482 63.73636261 45.29918732 64.72265625 45.31640625 C65.69786728 45.33718735 66.67307831 45.35796844 67.67784119 45.37937927 C70.8059863 45.44498412 73.93421822 45.50381028 77.0625 45.5625 C79.1777435 45.60567483 81.29297809 45.64928877 83.40820312 45.69335938 C88.60537587 45.80067655 93.80263577 45.9024222 99 46 C99 47.32 99 48.64 99 50 C53.98199725 52.29368621 53.98199725 52.29368621 42.39404297 42.36523438 C33.32079503 34.92441179 21.16741168 36.47176744 10 37 C10.33 37.9075 10.66 38.815 11 39.75 C12 43 12 43 12 47 C10.02 47.495 10.02 47.495 8 48 C7.01 42.555 7.01 42.555 6 37 C5.071875 37.309375 4.14375 37.61875 3.1875 37.9375 C1.125 38.625 -0.9375 39.3125 -3 40 C-2.67 38.68 -2.34 37.36 -2 36 C-2.98742187 36.09539062 -3.97484375 36.19078125 -4.9921875 36.2890625 C-6.27351563 36.39992187 -7.55484375 36.51078125 -8.875 36.625 C-10.15117188 36.74101563 -11.42734375 36.85703125 -12.7421875 36.9765625 C-13.81726563 36.98429687 -14.89234375 36.99203125 -16 37 C-16.66 36.34 -17.32 35.68 -18 35 C-17 34 -17 34 -14.77514648 33.88647461 C-13.81680908 33.89171143 -12.85847168 33.89694824 -11.87109375 33.90234375 C-10.83662109 33.90556641 -9.80214844 33.90878906 -8.73632812 33.91210938 C-7.64771484 33.92048828 -6.55910156 33.92886719 -5.4375 33.9375 C-3.7987793 33.94426758 -3.7987793 33.94426758 -2.12695312 33.95117188 C0.58208495 33.96300174 3.29101599 33.97948457 6 34 C5.71382812 33.22527344 5.42765625 32.45054688 5.1328125 31.65234375 C3.69229147 27.00790527 2.77822253 22.33619834 1.875 17.5625 C1.69324219 16.64662109 1.51148437 15.73074219 1.32421875 14.78710938 C0.36508334 9.76426866 -0.21097035 5.1125147 0 0 Z " fill="#E9DB50" transform="translate(98,42)"/>
<path d="M0 0 C0.33 0.99 0.66 1.98 1 3 C8.59 2.67 16.18 2.34 24 2 C24 2.66 24 3.32 24 4 C16.41 4.33 8.82 4.66 1 5 C3.88415883 6.44207941 6.41721528 6.09394887 9.625 6.0625 C11.40777344 6.04896484 11.40777344 6.04896484 13.2265625 6.03515625 C14.59941406 6.01775391 14.59941406 6.01775391 16 6 C15.67 7.32 15.34 8.64 15 10 C15.556875 9.505 16.11375 9.01 16.6875 8.5 C19.38162983 6.75245633 20.85375007 6.73781251 24 7 C25.43668294 10.8610854 26.11185208 13.896427 26 18 C20.33333333 18 14.66666667 18 9 18 C7.02 18.33 5.04 18.66 3 19 C7.95 19.33 12.9 19.66 18 20 C15.73106888 24.53786224 13.90133466 25.94678157 10 29 C8.35 27.02 6.7 25.04 5 23 C4.34 23.33 3.68 23.66 3 24 C4.32 25.65 5.64 27.3 7 29 C3.04 29 -0.92 29 -5 29 C-4.64766839 23.5388601 -4.64766839 23.5388601 -4 21 C-1.9375 19.5 -1.9375 19.5 0 19 C-0.99 18.67 -1.98 18.34 -3 18 C-3.33 17.01 -3.66 16.02 -4 15 C-4.99 15.495 -4.99 15.495 -6 16 C-5.67 12.7 -5.34 9.4 -5 6 C-3.35 5.34 -1.7 4.68 0 4 C0 2.68 0 1.36 0 0 Z " fill="#CFCF47" transform="translate(80,72)"/>
<path d="M0 0 C3.63755825 0.22071732 5.53281506 1.27447905 8.12695312 3.67871094 C19.79586996 14.41669651 30.14928251 14.64432608 45.5 14.25 C47.69138305 14.23799687 49.88280305 14.23144866 52.07421875 14.23046875 C57.38487832 14.21641939 62.69112065 14.13547595 68 14 C68 15.65 68 17.3 68 19 C61.56370419 19.25626175 55.12874837 19.42976874 48.68847656 19.54931641 C46.50405744 19.59921104 44.31996541 19.66715684 42.13671875 19.75439453 C29.30396445 20.25383781 19.59820367 20.37407897 9.68164062 11.51953125 C8.79669922 10.68808594 7.91175781 9.85664063 7 9 C5.3906239 7.77093408 3.76794213 6.55882245 2.125 5.375 C1.09375 4.59125 0.0625 3.8075 -1 3 C-0.67 2.01 -0.34 1.02 0 0 Z " fill="#EADB50" transform="translate(150,169)"/>
<path d="M0 0 C11.55 0 23.1 0 35 0 C31.18627664 4.44934392 27.92649835 8.15915685 23.625 11.9375 C22.75101563 12.70964844 21.87703125 13.48179687 20.9765625 14.27734375 C20.32429688 14.84582031 19.67203125 15.41429687 19 16 C15.4353909 14.75907806 13.1825866 13.51967914 10.625 10.75 C7.67557152 7.65147954 4.58834071 4.87920753 1.28515625 2.1640625 C0.64900391 1.58785156 0.64900391 1.58785156 0 1 C0 0.67 0 0.34 0 0 Z " fill="#1D8604" transform="translate(73,172)"/>
<path d="M0 0 C4.12266915 -0.35801402 8.24126263 -0.56451178 12.375 -0.75 C13.51195313 -0.85054688 14.64890625 -0.95109375 15.8203125 -1.0546875 C24.61827587 -1.34795295 28.6157772 0.74798388 35.4375 5.96875 C45.97852272 13.86073036 55.87040255 13.5961026 68.625 13.25 C70.71091308 13.23798961 72.79686507 13.23144807 74.8828125 13.23046875 C79.92454537 13.21645754 84.95996009 13.12928102 90 13 C90 13.99 90 14.98 90 16 C83.60033539 16.25684857 77.20202988 16.43000485 70.79833984 16.54931641 C68.6275875 16.59912642 66.4571621 16.66700517 64.28759766 16.75439453 C48.87227764 17.35905637 39.13248731 15.77024919 27 6 C26.01 5.34 25.02 4.68 24 4 C24 3.34 24 2.68 24 2 C16.08 2 8.16 2 0 2 C0 1.34 0 0.68 0 0 Z " fill="#FCE456" transform="translate(113,102)"/>
<path d="M0 0 C0.33951619 1.56116819 0.67132544 3.12401338 1 4.6875 C1.185625 5.55761719 1.37125 6.42773438 1.5625 7.32421875 C2 10 2 10 2 15 C-6.58 15 -15.16 15 -24 15 C-20.43470905 11.43470905 -16.90941245 8.00500442 -13.125 4.6875 C-12.63386719 4.23310547 -12.14273438 3.77871094 -11.63671875 3.31054688 C-7.7462008 -0.0494459 -5.04717671 -0.47435871 0 0 Z " fill="#208706" transform="translate(119,153)"/>
<path d="M0 0 C2.93972241 1.00790483 4.81465696 1.81374307 7.0300293 4.04003906 C11.36940733 6.90370753 15.23655063 6.60284353 20.33203125 6.609375 C21.81965218 6.63417938 21.81965218 6.63417938 23.33732605 6.65948486 C26.49578043 6.70795562 29.65375334 6.72933418 32.8125 6.75 C34.9577065 6.77816039 37.10289058 6.80808791 39.24804688 6.83984375 C44.49861054 6.913714 49.74903885 6.96536198 55 7 C55 8.32 55 9.64 55 11 C48.63242925 11.17863548 42.26551264 11.3005479 35.89599609 11.38452148 C33.73299007 11.4195545 31.57014777 11.46719724 29.40771484 11.52807617 C7.67360156 12.12428629 7.67360156 12.12428629 0.35693359 5.51586914 C-0.09085449 5.01563232 -0.53864258 4.51539551 -1 4 C-0.67 2.68 -0.34 1.36 0 0 Z " fill="#EFDD52" transform="translate(151,123)"/>
<path d="M0 0 C2.61423368 0.94402883 4.72472235 1.77409168 6.88531494 3.54719543 C9.34891615 5.23970802 10.62744923 5.39083496 13.58496094 5.43237305 C14.48559265 5.45216721 15.38622437 5.47196136 16.31414795 5.49235535 C17.75966034 5.50194023 17.75966034 5.50194023 19.234375 5.51171875 C20.72411835 5.53864555 20.72411835 5.53864555 22.24395752 5.56611633 C25.41259531 5.62025006 28.58108218 5.65412528 31.75 5.6875 C33.89976059 5.72067032 36.04950127 5.75515971 38.19921875 5.79101562 C43.46601051 5.8759781 48.73282173 5.94431501 54 6 C54 7.32 54 8.64 54 10 C47.59569038 10.152775 41.19185457 10.25747499 34.78613281 10.32958984 C32.60952189 10.35966783 30.43303122 10.40054171 28.25683594 10.45263672 C25.11883811 10.5258471 21.9824493 10.55954688 18.84375 10.5859375 C17.39639465 10.63238907 17.39639465 10.63238907 15.9197998 10.67977905 C9.7801704 10.68280224 6.21164779 9.47764307 1.36877441 5.68252563 C0 4 0 4 0 0 Z " fill="#EBDC50" transform="translate(159,158)"/>
<path d="M0 0 C5.62952742 1.12590548 5.62952742 1.12590548 8.48046875 3.3984375 C9.08697266 3.87796875 9.69347656 4.3575 10.31835938 4.8515625 C10.93517578 5.35429687 11.55199219 5.85703125 12.1875 6.375 C12.81591797 6.87 13.44433594 7.365 14.09179688 7.875 C16.95233748 10.16343248 18.93818231 11.90727346 21 15 C13.08 15 5.16 15 -3 15 C-2.01 10.05 -1.02 5.1 0 0 Z " fill="#1F8605" transform="translate(64,153)"/>
<path d="M0 0 C9.9 0 19.8 0 30 0 C26.77037205 3.22962795 23.60175177 6.30592008 20.1875 9.3125 C19.39730469 10.00988281 18.60710937 10.70726562 17.79296875 11.42578125 C17.20128906 11.94527344 16.60960938 12.46476563 16 13 C12.06014326 11.32651716 8.98587525 8.67405957 5.75 5.9375 C5.19570312 5.47794922 4.64140625 5.01839844 4.0703125 4.54492188 C2.69175775 3.38876943 1.34298593 2.19728462 0 1 C0 0.67 0 0.34 0 0 Z " fill="#1E8604" transform="translate(75,153)"/>
<path d="M0 0 C0.34019152 1.39417773 0.67181779 2.79044658 1 4.1875 C1.185625 4.96480469 1.37125 5.74210938 1.5625 6.54296875 C2 9 2 9 2 14 C-5.26 14 -12.52 14 -20 14 C-16.61049516 9.9325942 -13.97586197 6.86781242 -10 3.625 C-9.175 2.93664062 -8.35 2.24828125 -7.5 1.5390625 C-4.70745197 -0.18009988 -3.21634351 -0.33312129 0 0 Z " fill="#178503" transform="translate(115,135)"/>
<path d="M0 0 C1.24909401 0.02997826 1.24909401 0.02997826 2.52342224 0.06056213 C3.46432205 0.08065842 4.40522186 0.1007547 5.37463379 0.12145996 C6.39754013 0.14849503 7.42044647 0.17553009 8.47434998 0.2033844 C9.51614914 0.22699539 10.5579483 0.25060638 11.63131714 0.27493286 C14.97365733 0.35178392 18.31577818 0.43571553 21.65794373 0.51979065 C23.91769845 0.57298988 26.17746403 0.6257304 28.4372406 0.67799377 C33.99011203 0.80742788 39.54281928 0.94268262 45.09544373 1.08229065 C45.09544373 2.40229065 45.09544373 3.72229065 45.09544373 5.08229065 C29.58544373 5.08229065 14.07544373 5.08229065 -1.90455627 5.08229065 C-2.23455627 3.76229065 -2.56455627 2.44229065 -2.90455627 1.08229065 C-1.90455627 0.08229065 -1.90455627 0.08229065 0 0 Z " fill="#DED54C" transform="translate(163.90455627441406,143.91770935058594)"/>
<path d="M0 0 C14.85 0 29.7 0 45 0 C45 1.32 45 2.64 45 4 C38.77035385 4.02529951 32.54072088 4.04284549 26.31103516 4.05493164 C24.19058741 4.05996872 22.07014315 4.06679859 19.94970703 4.07543945 C16.90656678 4.08753234 13.86347234 4.09323447 10.8203125 4.09765625 C9.86818878 4.10281754 8.91606506 4.10797882 7.93508911 4.11329651 C7.05432709 4.11337204 6.17356506 4.11344757 5.26611328 4.11352539 C4.10029221 4.11685631 4.10029221 4.11685631 2.91091919 4.12025452 C1 4 1 4 -1 3 C-0.67 2.01 -0.34 1.02 0 0 Z " fill="#DFD64C" transform="translate(152,88)"/>
<path d="M0 0 C2 1.0625 2 1.0625 3 3 C3.63074205 8.8869258 3.63074205 8.8869258 1.9375 11.875 C-1.09633511 13.63658168 -3.50694211 13.93977486 -7 14 C-9.9375 12.4375 -9.9375 12.4375 -12 10 C-12.67927401 6.37720527 -12.46942769 4.74326051 -10.5 1.625 C-6.75900771 -0.80664499 -4.42573582 -0.49174842 0 0 Z " fill="#1C8604" transform="translate(96,26)"/>
<path d="M0 0 C2.84897847 0.40699692 4.69573895 0.77353318 7.0300293 2.51098633 C11.40444538 4.70412761 15.50050072 4.47950939 20.33203125 4.51171875 C21.32377853 4.52966995 22.31552582 4.54762115 23.33732605 4.56611633 C26.49567451 4.62016968 29.65387225 4.65409952 32.8125 4.6875 C34.95770324 4.72067742 37.10288661 4.75516747 39.24804688 4.79101562 C44.49856276 4.87589312 49.74909826 4.94426404 55 5 C55 5.99 55 6.98 55 8 C48.43478686 8.10172277 41.86977825 8.17160061 35.30395508 8.21972656 C33.07210698 8.23979685 30.84031118 8.26705933 28.60864258 8.30175781 C25.39391143 8.35047672 22.17987773 8.37301516 18.96484375 8.390625 C17.47693581 8.42159271 17.47693581 8.42159271 15.95896912 8.45318604 C9.7684134 8.45517479 6.02838695 7.70346317 1 4 C0.0625 1.75 0.0625 1.75 0 0 Z " fill="#FCE356" transform="translate(146,97)"/>
<path d="M0 0 C3.19131288 0.59389512 5.01141238 1.5671752 7.453125 3.6875 C8.071875 4.22117188 8.690625 4.75484375 9.328125 5.3046875 C9.96234375 5.86414063 10.5965625 6.42359375 11.25 7 C11.8996875 7.55945313 12.549375 8.11890625 13.21875 8.6953125 C14.8368701 10.10266905 16.42161317 11.54822174 18 13 C18 13.33 18 13.66 18 14 C11.07 14 4.14 14 -3 14 C-1.125 2.25 -1.125 2.25 0 0 Z " fill="#188504" transform="translate(68,135)"/>
<path d="M0 0 C8.91 0 17.82 0 27 0 C23.92302025 3.07697975 20.95835098 5.98515424 17.6875 8.8125 C16.99011719 9.41707031 16.29273437 10.02164063 15.57421875 10.64453125 C15.05472656 11.09183594 14.53523438 11.53914062 14 12 C9.21586287 8.46653832 4.47785614 4.91812412 0 1 C0 0.67 0 0.34 0 0 Z " fill="#198504" transform="translate(77,135)"/>
<path d="M0 0 C1.32 0 2.64 0 4 0 C4 5.28 4 10.56 4 16 C10.58432242 17.70448855 10.58432242 17.70448855 14.01953125 15.12890625 C15.40205078 13.85853516 15.40205078 13.85853516 16.8125 12.5625 C21.86259542 8 21.86259542 8 24 8 C24.33 8.99 24.66 9.98 25 11 C24.14535156 11.61488281 23.29070312 12.22976562 22.41015625 12.86328125 C21.29398926 13.6793025 20.17811919 14.49572999 19.0625 15.3125 C18.21655273 15.91868164 18.21655273 15.91868164 17.35351562 16.53710938 C13.83365004 19.10693229 13.83365004 19.10693229 12 23 C11.34 23 10.68 23 10 23 C9.67 24.32 9.34 25.64 9 27 C8.5359375 25.2984375 8.5359375 25.2984375 8.0625 23.5625 C7.37075469 20.21224901 7.37075469 20.21224901 6 19 C4.48071962 18.92820036 2.95832518 18.91607993 1.4375 18.9375 C0.19806641 18.95103516 0.19806641 18.95103516 -1.06640625 18.96484375 C-1.70449219 18.97644531 -2.34257813 18.98804687 -3 19 C-3.33 18.01 -3.66 17.02 -4 16 C-2.68 15.67 -1.36 15.34 0 15 C0 10.05 0 5.1 0 0 Z " fill="#D7D34A" transform="translate(90,8)"/>
<path d="M0 0 C1.4800841 0.11362262 2.95910074 0.24122908 4.4375 0.375 C5.26121094 0.44460937 6.08492187 0.51421875 6.93359375 0.5859375 C7.61550781 0.72257813 8.29742187 0.85921875 9 1 C9.33 1.66 9.66 2.32 10 3 C12.71446979 3.31241455 15.33909361 3.51336592 18.0625 3.625 C19.20041992 3.68300781 19.20041992 3.68300781 20.36132812 3.7421875 C22.24047195 3.83673562 24.12020336 3.91946756 26 4 C25.67 4.99 25.34 5.98 25 7 C17.50009325 8.20263656 10.0817215 8.11258251 2.5 8.0625 C1.200625 8.05798828 -0.09875 8.05347656 -1.4375 8.04882812 C-4.62504825 8.0371092 -7.81249955 8.02070219 -11 8 C-11.33 7.01 -11.66 6.02 -12 5 C-8.04 4.34 -4.08 3.68 0 3 C0 2.01 0 1.02 0 0 Z " fill="#FCE357" transform="translate(84,164)"/>
<path d="M0 0 C3.63755825 0.22071732 5.53281506 1.27447905 8.12695312 3.67871094 C19.79586996 14.41669651 30.14928251 14.64432608 45.5 14.25 C47.69138305 14.23799687 49.88280305 14.23144866 52.07421875 14.23046875 C57.38487832 14.21641939 62.69112065 14.13547595 68 14 C68 14.33 68 14.66 68 15 C67.1455555 15.01213028 67.1455555 15.01213028 66.27384949 15.02450562 C60.35282812 15.1104667 54.43214481 15.20996639 48.51147461 15.31738281 C46.30092032 15.35570017 44.09030308 15.39054814 41.87963867 15.421875 C38.70468629 15.46746552 35.53016828 15.52547003 32.35546875 15.5859375 C31.36475876 15.59748871 30.37404877 15.60903992 29.35331726 15.62094116 C27.97222527 15.6507457 27.97222527 15.6507457 26.56323242 15.68115234 C25.7527092 15.69447601 24.94218597 15.70779968 24.10710144 15.7215271 C21.69899809 15.88223777 21.69899809 15.88223777 19 18 C18.50072998 17.61666504 18.00145996 17.23333008 17.48706055 16.83837891 C15.22128768 15.09960959 12.95440715 13.3622902 10.6875 11.625 C9.90181641 11.02171875 9.11613281 10.4184375 8.30664062 9.796875 C7.54931641 9.21679688 6.79199219 8.63671875 6.01171875 8.0390625 C5.31522217 7.50490723 4.61872559 6.97075195 3.90112305 6.42041016 C2.30516646 5.22800288 0.65762139 4.10508093 -1 3 C-0.67 2.01 -0.34 1.02 0 0 Z " fill="#DAD44B" transform="translate(150,169)"/>
<path d="M0 0 C0.33 1.32 0.66 2.64 1 4 C2.32 4.33 3.64 4.66 5 5 C4.38125 5.165 3.7625 5.33 3.125 5.5 C-0.27756949 7.90181375 -0.22612026 11.00162134 -1 15 C2.96 15 6.92 15 11 15 C11.33 15.99 11.66 16.98 12 18 C9.69 18 7.38 18 5 18 C5.66 19.32 6.32 20.64 7 22 C6.01 22.33 5.02 22.66 4 23 C3.566875 22.525625 3.13375 22.05125 2.6875 21.5625 C0.97690387 19.76313043 0.97690387 19.76313043 -2 19 C-2.33 20.98 -2.66 22.96 -3 25 C-4.32 25.33 -5.64 25.66 -7 26 C-6.10676162 19.40524007 -5.20653855 12.80659068 -4.0625 6.25 C-3.92972656 5.47140625 -3.79695313 4.6928125 -3.66015625 3.890625 C-3 2 -3 2 0 0 Z " fill="#EDDD52" transform="translate(76,86)"/>
<path d="M0 0 C1.13764351 4.26616316 2 7.56486311 2 12 C-4.27 12 -10.54 12 -17 12 C-5.96268657 -0.87686567 -5.96268657 -0.87686567 0 0 Z " fill="#1F8604" transform="translate(112,119)"/>
<path d="M0 0 C4.83243779 0.42405304 7.44757455 2.76535872 10.8125 6 C11.31458984 6.4640625 11.81667969 6.928125 12.33398438 7.40625 C13.58328956 8.57566764 14.79526529 9.78471594 16 11 C16 11.33 16 11.66 16 12 C10.06 12 4.12 12 -2 12 C-1.125 3.375 -1.125 3.375 0 0 Z " fill="#1C8705" transform="translate(71,119)"/>
<path d="M0 0 C0.33 0 0.66 0 1 0 C1.85916038 4.48317198 2.71351856 8.96722267 3.56347656 13.45214844 C3.85317922 14.97713803 4.14418311 16.50188104 4.43652344 18.02636719 C4.8569582 20.2200642 5.27267623 22.41461095 5.6875 24.609375 C5.81874268 25.2886908 5.94998535 25.96800659 6.08520508 26.66790771 C6.68638311 29.87267854 7 32.71928788 7 36 C5.68 36 4.36 36 3 36 C2.15540764 31.9814475 1.32635503 27.95983894 0.5 23.9375 C0.26152344 22.80376953 0.02304688 21.67003906 -0.22265625 20.50195312 C-3.34127176 5.22073713 -3.34127176 5.22073713 0 0 Z " fill="#E6D94F" transform="translate(128,184)"/>
<path d="M0 0 C0.33 3.3 0.66 6.6 1 10 C-4.94 10 -10.88 10 -17 10 C-12.60546875 4.82421875 -12.60546875 4.82421875 -11 3 C-10.525625 2.4328125 -10.05125 1.865625 -9.5625 1.28125 C-6.71807575 -1.05117789 -3.53435086 -0.17382053 0 0 Z " fill="#188604" transform="translate(110,105)"/>
<path d="M0 0 C7.26 0 14.52 0 22 0 C18.66666667 3.33333333 15.33333333 6.66666667 12 10 C8.78727751 8.56006357 6.3793336 6.76981628 3.75 4.4375 C3.04359375 3.81746094 2.3371875 3.19742188 1.609375 2.55859375 C1.07828125 2.04425781 0.5471875 1.52992187 0 1 C0 0.67 0 0.34 0 0 Z " fill="#228806" transform="translate(80,119)"/>
<path d="M0 0 C27.9730999 -1.75827479 27.9730999 -1.75827479 38.10546875 7.03125 C38.73066406 7.6809375 39.35585937 8.330625 40 9 C39.67 10.32 39.34 11.64 39 13 C28.30390492 7.20033956 28.30390492 7.20033956 24 4 C24 3.34 24 2.68 24 2 C16.08 2 8.16 2 0 2 C0 1.34 0 0.68 0 0 Z " fill="#FAE255" transform="translate(113,102)"/>
<path d="M0 0 C1.2065625 0.0309375 1.2065625 0.0309375 2.4375 0.0625 C3.75376692 3.68223402 4.4375 6.15817131 4.4375 10.0625 C-0.1825 10.0625 -4.8025 10.0625 -9.5625 10.0625 C-2.94902235 0.07192737 -2.94902235 0.07192737 0 0 Z " fill="#178404" transform="translate(101.5625,78.9375)"/>
<path d="M0 0 C9.57 0 19.14 0 29 0 C29 0.99 29 1.98 29 3 C19.76 3 10.52 3 1 3 C0.67 2.01 0.34 1.02 0 0 Z " fill="#FEE557" transform="translate(180,146)"/>
<path d="M0 0 C4.28049858 1.07012465 5.28933102 1.92967662 8.25 5 C8.95640625 5.721875 9.6628125 6.44375 10.390625 7.1875 C12 9 12 9 12 10 C7.38 10 2.76 10 -2 10 C-1.34 6.7 -0.68 3.4 0 0 Z " fill="#158403" transform="translate(74,105)"/>
<path d="M0 0 C0.78375 0.04125 1.5675 0.0825 2.375 0.125 C2.705 3.095 3.035 6.065 3.375 9.125 C-1.245 9.125 -5.865 9.125 -10.625 9.125 C-2.97242647 0.14154412 -2.97242647 0.14154412 0 0 Z " fill="#1C8605" transform="translate(104.625,91.875)"/>
<path d="M0 0 C5.61 0 11.22 0 17 0 C11.64450128 6.6943734 11.64450128 6.6943734 9.03125 7.93359375 C7 8 7 8 5.078125 6.6015625 C4.47484375 5.94929688 3.8715625 5.29703125 3.25 4.625 C2.63640625 3.97789063 2.0228125 3.33078125 1.390625 2.6640625 C0 1 0 1 0 0 Z " fill="#1A8604" transform="translate(81,105)"/>
<path d="M0 0 C0.33 0.66 0.66 1.32 1 2 C7.27 1.67 13.54 1.34 20 1 C18 4 18 4 14.6875 4.9375 C10.88768313 6.03236249 8.89275362 7.37022398 6 10 C6.50603992 7.83125748 6.99983813 6.00032373 8 4 C3.05 4 -1.9 4 -7 4 C-7.33 3.34 -7.66 2.68 -8 2 C-6.865625 1.855625 -5.73125 1.71125 -4.5625 1.5625 C-1.19222799 1.38828522 -1.19222799 1.38828522 0 0 Z " fill="#FBE356" transform="translate(90,88)"/>
<path d="M0 0 C4.30764815 1.56641751 8.06171464 3.68336156 12 6 C11.34 7.32 10.68 8.64 10 10 C9.43039551 9.57702637 8.86079102 9.15405273 8.27392578 8.71826172 C1.13296029 3.87661606 -4.61889178 3.10521835 -13.125 3.125 C-14.27226563 3.104375 -15.41953125 3.08375 -16.6015625 3.0625 C-19.40177885 3.01582973 -22.19947818 2.99551917 -25 3 C-25 2.67 -25 2.34 -25 2 C-16.75 2 -8.5 2 0 2 C0 1.34 0 0.68 0 0 Z " fill="#D7D34A" transform="translate(136,90)"/>
<path d="M0 0 C5.92529609 1.48132402 6.84102888 4.90256933 10 10 C6.37 10 2.74 10 -1 10 C-0.67 6.7 -0.34 3.4 0 0 Z " fill="#1A8604" transform="translate(79,79)"/>
<path d="M0 0 C2 3 2 3 2 5 C-9.385 4.505 -9.385 4.505 -21 4 C-21 3.01 -21 2.02 -21 1 C-17.5430244 0.74582371 -14.08471174 0.52592378 -10.625 0.3125 C-9.64015625 0.23966797 -8.6553125 0.16683594 -7.640625 0.09179688 C-6.22910156 0.00961914 -6.22910156 0.00961914 -4.7890625 -0.07421875 C-3.91975098 -0.13182373 -3.05043945 -0.18942871 -2.15478516 -0.2487793 C-1.44370605 -0.16668213 -0.73262695 -0.08458496 0 0 Z " fill="#F7E254" transform="translate(82,31)"/>
<path d="M0 0 C2.912575 0.08566397 4.56798024 0.57910955 6.66796875 2.625 C8.15706463 4.37937424 9.58267863 6.18714709 11 8 C7.04 8 3.08 8 -1 8 C-0.67 5.36 -0.34 2.72 0 0 Z " fill="#178504" transform="translate(76,93)"/>
<path d="M0 0 C3.49844386 0.63389235 5.84086876 2.05177694 8.75 4.0625 C9.94882813 4.88427734 9.94882813 4.88427734 11.171875 5.72265625 C12.07679688 6.35494141 12.07679688 6.35494141 13 7 C12.67 8.32 12.34 9.64 12 11 C2.40546697 5.9977221 2.40546697 5.9977221 -1 2 C-0.67 1.34 -0.34 0.68 0 0 Z " fill="#EADB50" transform="translate(140,104)"/>
<path d="M0 0 C4.29 0 8.58 0 13 0 C10.9957983 4.0084034 9.50944037 5.41409657 6 8 C4.02 5.36 2.04 2.72 0 0 Z " fill="#198605" transform="translate(84,93)"/>
<path d="M0 0 C1.93166016 0.01740234 1.93166016 0.01740234 3.90234375 0.03515625 C5.19269531 0.04417969 6.48304688 0.05320313 7.8125 0.0625 C8.81152344 0.07410156 9.81054688 0.08570313 10.83984375 0.09765625 C9.65625 2.0703125 9.65625 2.0703125 7.83984375 4.09765625 C5.4296875 4.59375 5.4296875 4.59375 2.77734375 4.53515625 C1.89949219 4.53386719 1.02164063 4.53257812 0.1171875 4.53125 C-0.63433594 4.38816406 -1.38585937 4.24507812 -2.16015625 4.09765625 C-2.82015625 3.10765625 -3.48015625 2.11765625 -4.16015625 1.09765625 C-3.16015625 0.09765625 -3.16015625 0.09765625 0 0 Z " fill="#FBE357" transform="translate(141.16015625,167.90234375)"/>
<path d="M0 0 C3.63 0 7.26 0 11 0 C9.68 2.31 8.36 4.62 7 7 C6.01 7 5.02 7 4 7 C2.02 3.535 2.02 3.535 0 0 Z " fill="#198605" transform="translate(85,79)"/>
<path d="M0 0 C0.66 0.33 1.32 0.66 2 1 C1.68834824 3.6713008 1.35739271 6.33487148 1 9 C0.896875 9.78375 0.79375 10.5675 0.6875 11.375 C0 13 0 13 -2.0625 14.25 C-2.701875 14.4975 -3.34125 14.745 -4 15 C-2.73076923 2.73076923 -2.73076923 2.73076923 0 0 Z " fill="#F1DF53" transform="translate(80,63)"/>
<path d="M0 0 C0.33 0.66 0.66 1.32 1 2 C4.63 2 8.26 2 12 2 C12 2.33 12 2.66 12 3 C10.02 3.33 8.04 3.66 6 4 C10.95 4.33 15.9 4.66 21 5 C20.67 5.66 20.34 6.32 20 7 C15.71 6.67 11.42 6.34 7 6 C7 6.66 7 7.32 7 8 C4.03824877 7.38722388 2.61941217 6.74627478 0 5 C0.99 4.67 1.98 4.34 3 4 C2.01 3.67 1.02 3.34 0 3 C0 2.01 0 1.02 0 0 Z " fill="#B0C13B" transform="translate(77,87)"/>
<path d="M0 0 C0.99773437 0.02320312 1.99546875 0.04640625 3.0234375 0.0703125 C4.52777344 0.09738281 4.52777344 0.09738281 6.0625 0.125 C6.83335938 0.14820312 7.60421875 0.17140625 8.3984375 0.1953125 C8.7284375 0.8553125 9.0584375 1.5153125 9.3984375 2.1953125 C7.0884375 2.1953125 4.7784375 2.1953125 2.3984375 2.1953125 C3.0584375 3.5153125 3.7184375 4.8353125 4.3984375 6.1953125 C3.4084375 6.5253125 2.4184375 6.8553125 1.3984375 7.1953125 C0.9653125 6.7415625 0.5321875 6.2878125 0.0859375 5.8203125 C-1.70954592 3.99506916 -1.70954592 3.99506916 -4.6015625 2.1953125 C-2.6015625 0.1953125 -2.6015625 0.1953125 0 0 Z " fill="#F7E155" transform="translate(78.6015625,101.8046875)"/>
<path d="M0 0 C0.33 0 0.66 0 1 0 C1.66 4.95 2.32 9.9 3 15 C1.68 15 0.36 15 -1 15 C-1.91457003 9.43842552 -2.32086397 5.324335 0 0 Z " fill="#E6D94F" transform="translate(122,153)"/>
<path d="M0 0 C0.33 0.99 0.66 1.98 1 3 C-0.2608012 4.03319813 -1.53403258 5.05124379 -2.8125 6.0625 C-3.87404297 6.91521484 -3.87404297 6.91521484 -4.95703125 7.78515625 C-5.63121094 8.18605469 -6.30539063 8.58695313 -7 9 C-7.99 8.67 -8.98 8.34 -10 8 C-3.94594595 0 -3.94594595 0 0 0 Z " fill="#E9DC51" transform="translate(114,16)"/>
<path d="M0 0 C3.95820859 0.56545837 6.6659053 1.80902348 10 4 C9.34 5.32 8.68 6.64 8 8 C1.23076923 4.55384615 1.23076923 4.55384615 0.0625 1.75 C0.041875 1.1725 0.02125 0.595 0 0 Z " fill="#EEDE52" transform="translate(146,97)"/>
<path d="M0 0 C1.48831242 0.00667405 2.97660807 0.01863442 4.46484375 0.03515625 C5.22345703 0.03966797 5.98207031 0.04417969 6.76367188 0.04882812 C8.64326246 0.06064945 10.52281274 0.07858547 12.40234375 0.09765625 C12.07234375 0.75765625 11.74234375 1.41765625 11.40234375 2.09765625 C8.3125 2.58203125 8.3125 2.58203125 4.46484375 2.84765625 C2.56412109 2.99460937 2.56412109 2.99460937 0.625 3.14453125 C-2.59765625 3.09765625 -2.59765625 3.09765625 -4.59765625 1.09765625 C-3.59765625 0.09765625 -3.59765625 0.09765625 0 0 Z " fill="#FFE658" transform="translate(84.59765625,75.90234375)"/>
<path d="M0 0 C3.3 0 6.6 0 10 0 C9.01 0.33 8.02 0.66 7 1 C6.67 1.99 6.34 2.98 6 4 C4.125 3.6875 4.125 3.6875 2 3 C1.34 2.01 0.68 1.02 0 0 Z " fill="#2B8B0B" transform="translate(75,153)"/>
<path d="M0 0 C1.79244141 0.01740234 1.79244141 0.01740234 3.62109375 0.03515625 C5.41740234 0.04869141 5.41740234 0.04869141 7.25 0.0625 C8.17683594 0.07410156 9.10367188 0.08570312 10.05859375 0.09765625 C10.05859375 0.42765625 10.05859375 0.75765625 10.05859375 1.09765625 C6.75859375 1.42765625 3.45859375 1.75765625 0.05859375 2.09765625 C-0.27140625 3.41765625 -0.60140625 4.73765625 -0.94140625 6.09765625 C-1.93140625 4.44765625 -2.92140625 2.79765625 -3.94140625 1.09765625 C-2.94140625 0.09765625 -2.94140625 0.09765625 0 0 Z " fill="#CDCE47" transform="translate(85.94140625,77.90234375)"/>
<path d="M0 0 C0.33 0 0.66 0 1 0 C1.33 3.3 1.66 6.6 2 10 C0.35 10 -1.3 10 -3 10 C-3 9.34 -3 8.68 -3 8 C-2.34 7.67 -1.68 7.34 -1 7 C-0.59270772 4.67843403 -0.25561323 2.3431213 0 0 Z " fill="#EFDF52" transform="translate(93,15)"/>
<path d="M0 0 C1.32 0.99 2.64 1.98 4 3 C3.67 3.99 3.34 4.98 3 6 C1.35 4.35 -0.3 2.7 -2 1 C-1.34 0.67 -0.68 0.34 0 0 Z " fill="#D9D44B" transform="translate(84,94)"/>
<path d="M0 0 C-2 2 -2 2 -5.625 2.125 C-6.73875 2.08375 -7.8525 2.0425 -9 2 C-8.67 1.34 -8.34 0.68 -8 0 C-4.71585695 -0.95067299 -3.30306592 -1.10102197 0 0 Z " fill="#FEE458" transform="translate(110,90)"/>
<path d="M0 0 C1.32 0.99 2.64 1.98 4 3 C3.34 4.98 2.68 6.96 2 9 C1.67 9 1.34 9 1 9 C0.67 6.03 0.34 3.06 0 0 Z " fill="#2A8C0B" transform="translate(101,41)"/>
</svg>
